<svg width="390" height="196" viewBox="0 0 390 196" fill="none" xmlns="http://www.w3.org/2000/svg">
<g opacity="0.25" filter="url(#filter0_f_11116_2735)">
<path d="M69.6898 0.43177C69.6898 17.0572 72.9311 33.5199 79.2285 48.8799C85.5259 64.2398 94.7562 78.1962 106.392 89.9522C118.028 101.708 131.843 111.034 147.046 117.396C162.249 123.758 178.544 127.033 195 127.033C211.456 127.033 227.751 123.758 242.954 117.396C258.157 111.033 271.972 101.708 283.608 89.9521C295.244 78.1962 304.474 64.2398 310.772 48.8798C317.069 33.5199 320.31 17.0572 320.31 0.431755L195 0.43177H69.6898Z" fill="url(#paint0_linear_11116_2735)"/>
</g>
<defs>
<filter id="filter0_f_11116_2735" x="0.911049" y="-68.3471" width="388.178" height="264.159" filterUnits="userSpaceOnUse" color-interpolation-filters="sRGB">
<feFlood flood-opacity="0" result="BackgroundImageFix"/>
<feBlend mode="normal" in="SourceGraphic" in2="BackgroundImageFix" result="shape"/>
<feGaussianBlur stdDeviation="34.3894" result="effect1_foregroundBlur_11116_2735"/>
</filter>
<linearGradient id="paint0_linear_11116_2735" x1="195" y1="127.033" x2="195" y2="39.4631" gradientUnits="userSpaceOnUse">
<stop stop-color="#6D7CFF"/>
<stop offset="1" stop-color="#6D7CFF"/>
</linearGradient>
</defs>
</svg>
