<svg width="128" height="33" viewBox="0 0 128 33" fill="none" xmlns="http://www.w3.org/2000/svg">
<path d="M41.8057 12.7132C41.8057 10.4349 39.5902 8.01506 35.7562 8.01506C31.4509 8.01506 26.7213 11.1734 25.9985 17.4743C25.26 23.838 29.2196 26.6663 33.2107 26.6663C37.2018 26.6663 39.2916 25.1107 41.4286 23.0366C39.5902 20.7268 37.2175 21.7953 36.7619 22.031C36.259 22.2824 35.6148 22.6281 34.2949 22.6281C32.7551 22.6281 31.1838 21.9367 31.1838 19.0613C41.0515 18.0871 41.8057 14.9916 41.8057 12.7132ZM36.919 13.0903C36.8561 13.7974 36.5733 15.0073 31.5766 15.683C32.6294 11.9433 34.6406 11.6605 35.5677 11.6605C36.4319 11.6605 36.9818 12.3361 36.919 13.0903ZM20.2004 13.7031C20.2004 13.7031 18.0792 20.3654 17.9063 20.9154C17.8435 20.3497 16.2879 8.39217 16.2879 8.39217C12.6739 8.39217 10.7412 10.9691 9.71988 13.6874C9.71988 13.6874 7.14295 20.3654 6.92297 20.9311C6.90726 20.4126 6.53015 13.766 6.53015 13.766C6.31017 10.4349 3.26185 8.40788 0.794922 8.40788L3.78038 26.5249C7.5672 26.5092 9.60989 23.948 10.6784 21.2296C10.6784 21.2296 12.9567 15.3373 13.051 15.0702C13.0667 15.3216 14.6852 26.5249 14.6852 26.5249C18.4877 26.5249 20.5304 24.1208 21.6303 21.4968L26.957 8.40788C23.2016 8.40788 21.2218 10.9691 20.2004 13.7031ZM55.7588 7.98363C53.4176 7.98363 51.6263 9.25638 50.1179 11.1262V11.1105L51.4692 0.221436C48.358 0.221436 45.8282 2.92406 45.3411 6.94658L42.9842 26.3835C44.7755 26.3835 46.6767 25.865 47.6981 24.5451C48.6094 25.7235 49.9765 26.6663 52.0034 26.6663C57.2515 26.6663 60.8498 20.5697 60.8498 14.8502C60.8184 9.63349 58.2886 7.98363 55.7588 7.98363ZM55.2717 17.3328C54.7218 20.5226 52.9462 22.691 51.2335 22.691C49.5051 22.691 48.7666 21.921 48.7666 21.921C49.0965 19.1241 49.3008 17.4114 49.9293 15.9344C50.5578 14.4574 52.0506 12.1004 53.6061 12.1004C55.1303 12.1004 55.8217 14.1274 55.2717 17.3328ZM73.9544 8.40788H70.2933L70.309 8.21933C70.5604 5.83096 71.1261 4.57392 72.9959 4.36965C74.2687 4.24395 74.8343 3.58401 74.9757 2.86121C75.0857 2.29554 75.4314 0.331426 75.4314 0.331426C68.0778 0.284287 65.768 3.4583 65.1709 8.29789L65.1552 8.40788H65.0766C63.8824 8.40788 62.5625 9.7592 62.3425 11.4719L62.264 12.1004H64.7152L62.6568 29.1018L62.0283 32.1501C62.1068 32.1501 62.2011 32.1659 62.2797 32.1659C65.7208 32.0402 67.9206 29.3218 68.4077 25.3779L70.0105 12.1004H71.1575C72.2888 12.1004 73.6087 10.9691 73.8444 9.08354L73.9544 8.40788ZM92.9985 8.09362C88.7717 8.09362 84.7806 11.2048 83.555 16.0915C82.3294 20.9782 84.1835 26.7606 90.4059 26.7606C96.6125 26.7606 100.195 20.7425 100.195 15.7301C100.195 10.7491 96.8167 8.09362 92.9985 8.09362ZM94.7112 17.1757C94.4912 19.3912 93.517 22.7538 90.8458 22.7538C88.1589 22.7538 88.536 18.8256 88.8031 16.9557C89.086 14.9602 90.2016 12.1161 92.6057 12.1161C94.7584 12.1161 94.9626 14.6773 94.7112 17.1757ZM121.078 13.7031C121.078 13.7031 118.956 20.3654 118.783 20.9154C118.721 20.3497 117.165 8.39217 117.165 8.39217C113.551 8.39217 111.618 10.9691 110.597 13.6874C110.597 13.6874 108.02 20.3654 107.8 20.9311C107.784 20.4126 107.407 13.766 107.407 13.766C107.187 10.4349 104.139 8.40788 101.672 8.40788L104.642 26.5249C108.429 26.5092 110.471 23.948 111.54 21.2296C111.54 21.2296 113.818 15.3373 113.897 15.0702C113.912 15.3216 115.531 26.5249 115.531 26.5249C119.333 26.5249 121.376 24.1208 122.476 21.4968L127.803 8.40788C124.063 8.40788 122.083 10.9691 121.078 13.7031ZM77.4113 0.331426L74.3315 25.1736L73.703 28.2376C73.7816 28.2376 73.8758 28.2533 73.9544 28.2533C77.2698 28.2062 79.6268 25.2993 80.0667 21.6382L81.8423 7.38654C82.3765 3.03405 79.7839 0.331426 77.4113 0.331426Z" fill="#DDE1F4"/>
</svg>
