<svg width="87" height="32" viewBox="0 0 87 32" fill="none" xmlns="http://www.w3.org/2000/svg">
<g clip-path="url(#clip0_11640_4174)">
<path d="M71.3382 30.6113C71.2769 30.6113 71.2182 30.587 71.1748 30.5436C71.1315 30.5003 71.1072 30.4415 71.1072 30.3803V2.54213C71.1072 2.43287 71.1842 2.33812 71.291 2.31595L76.1165 1.31126C76.1501 1.30424 76.1849 1.30482 76.2183 1.31296C76.2517 1.32109 76.2829 1.33658 76.3096 1.35829C76.3362 1.38 76.3577 1.40738 76.3724 1.43845C76.3871 1.46951 76.3947 1.50347 76.3947 1.53784V30.3803C76.3947 30.4415 76.3703 30.5003 76.327 30.5436C76.2837 30.587 76.2249 30.6113 76.1637 30.6113H71.3382ZM10.6852 31.2003C8.75768 31.2003 7.03656 30.7286 5.52187 29.786C4.00718 28.843 2.80938 27.5537 1.92806 25.9176C1.04674 24.2816 0.606079 22.4238 0.606079 20.3439C0.606079 18.2644 1.04674 16.4203 1.92806 14.8121C2.80938 13.1756 4.00718 11.9004 5.52187 10.9852C7.03656 10.0422 8.75768 9.57091 10.6852 9.57091C12.2277 9.57091 13.5771 9.86199 14.7334 10.4446C15.6607 10.911 16.4464 11.5291 17.0903 12.2991C17.2362 12.4737 17.5426 12.3749 17.5426 12.1471V2.04139C17.5426 1.93214 17.6192 1.8378 17.7265 1.81562L22.552 0.810531C22.5856 0.803526 22.6203 0.804089 22.6536 0.81218C22.687 0.82027 22.7181 0.835685 22.7447 0.857305C22.7714 0.878925 22.7928 0.906207 22.8076 0.937169C22.8224 0.968131 22.8301 1.002 22.8302 1.0363V30.4694C22.8302 30.5306 22.8058 30.5894 22.7625 30.6327C22.7192 30.6761 22.6604 30.7004 22.5991 30.7004H18.3111C18.2575 30.7004 18.2057 30.6817 18.1643 30.6477C18.123 30.6136 18.0948 30.5663 18.0845 30.5137L17.645 28.2701C17.6059 28.0713 17.3455 28.0125 17.2165 28.1681C16.6009 28.9111 15.8284 29.5752 14.8987 30.1597C13.8247 30.8532 12.4204 31.1999 10.6856 31.1999L10.6852 31.2003ZM11.8008 26.5413C13.5082 26.5413 14.8987 25.9729 15.9727 24.8359C17.0742 23.6716 17.6253 22.188 17.6253 20.3854C17.6253 18.5829 17.0742 17.1133 15.9727 15.9764C14.8987 14.8121 13.5082 14.2295 11.8008 14.2295C10.1208 14.2295 8.73026 14.7979 7.62841 15.9349C6.52656 17.0718 5.97624 18.5413 5.97624 20.3439C5.97624 22.1464 6.52696 23.6297 7.62841 24.7948C8.73026 25.9588 10.1208 26.5413 11.8008 26.5413ZM35.723 31.2031C33.6576 31.2031 31.8264 30.7597 30.229 29.8723C28.6317 28.9849 27.3787 27.7371 26.4699 26.1289C25.5612 24.5203 25.1068 22.6625 25.1068 20.5551C25.1068 18.42 25.5475 16.5203 26.4288 14.8568C27.3375 13.1929 28.5769 11.9032 30.1464 10.9884C31.7437 10.0454 33.6164 9.57413 35.7645 9.57413C37.7751 9.57413 39.551 10.0176 41.0931 10.905C42.6356 11.7923 43.8334 13.0127 44.6869 14.5657C45.5683 16.0905 46.0089 17.7959 46.0089 19.6819C46.0089 19.9867 45.9952 20.3056 45.9678 20.6382C45.9678 20.9047 45.9589 21.18 45.9412 21.4647C45.9374 21.5228 45.9116 21.5772 45.869 21.6169C45.8265 21.6566 45.7704 21.6786 45.7122 21.6784H30.6004C30.5688 21.6781 30.5375 21.6845 30.5086 21.6971C30.4796 21.7097 30.4536 21.7282 30.4323 21.7514C30.4109 21.7747 30.3947 21.8021 30.3846 21.8321C30.3745 21.862 30.3708 21.8937 30.3738 21.9251C30.5213 23.416 31.0652 24.5953 32.0054 25.4633C33.0242 26.3785 34.2498 26.8361 35.6823 26.8361C36.7559 26.8361 37.6509 26.6002 38.3669 26.1289C39.0676 25.6584 39.5966 25.0654 39.9554 24.3485C39.9957 24.2679 40.0772 24.2155 40.1671 24.2155H45.08C45.1158 24.2152 45.1511 24.2233 45.1831 24.2393C45.2151 24.2553 45.2428 24.2787 45.264 24.3075C45.2852 24.3364 45.2992 24.3698 45.3049 24.4051C45.3107 24.4404 45.3079 24.4766 45.2969 24.5106C44.9039 25.6991 44.2874 26.7933 43.448 27.7924C42.5667 28.8462 41.4649 29.678 40.1433 30.288C38.8491 30.8983 37.3755 31.2031 35.723 31.2031ZM35.7645 13.9001C34.4703 13.9001 33.3274 14.2742 32.336 15.0229C31.4055 15.6994 30.7902 16.7182 30.4907 18.0789C30.4837 18.1119 30.4842 18.146 30.4921 18.1788C30.5001 18.2116 30.5153 18.2421 30.5367 18.2682C30.5581 18.2943 30.585 18.3153 30.6156 18.3295C30.6461 18.3438 30.6795 18.351 30.7132 18.3506H40.3932C40.5263 18.3506 40.6327 18.2382 40.619 18.1059C40.494 16.8613 40.0054 15.8615 39.1515 15.1064C38.2428 14.3021 37.1139 13.9001 35.7645 13.9001ZM58.7252 31.2035C56.6597 31.2035 54.8286 30.7601 53.2312 29.8727C51.6339 28.9853 50.3809 27.7375 49.4721 26.1293C48.5634 24.5211 48.109 22.6629 48.109 20.5555C48.109 18.4204 48.5497 16.5207 49.4306 14.8572C50.3397 13.1933 51.5787 11.9036 53.1486 10.9888C54.7459 10.0458 56.6182 9.57454 58.7663 9.57454C60.7769 9.57454 62.5532 10.018 64.0953 10.9054C65.6374 11.7928 66.8352 13.0131 67.6891 14.5661C68.5705 16.0909 69.0111 17.7963 69.0111 19.6823C69.0111 19.9871 68.9974 20.306 68.9696 20.6386C68.9696 20.9051 68.9607 21.1809 68.9434 21.4651C68.9395 21.5231 68.9137 21.5775 68.8711 21.6172C68.8286 21.6569 68.7726 21.6789 68.7144 21.6788H53.6025C53.571 21.6785 53.5397 21.6849 53.5107 21.6975C53.4817 21.7101 53.4557 21.7286 53.4343 21.7518C53.413 21.775 53.3967 21.8025 53.3866 21.8324C53.3764 21.8623 53.3727 21.894 53.3756 21.9255C53.5231 23.4164 54.0674 24.5957 55.0076 25.4637C56.0264 26.3789 57.252 26.8365 58.6836 26.8365C59.7577 26.8365 60.6527 26.6006 61.3691 26.1293C62.0694 25.6588 62.5988 25.0658 62.9572 24.3489C62.9975 24.2683 63.0789 24.2159 63.1692 24.2159H68.0818C68.2366 24.2159 68.3475 24.3642 68.2987 24.511C67.906 25.6995 67.2896 26.7937 66.4498 27.7928C65.5685 28.8466 64.467 29.6788 63.1451 30.2884C61.8509 30.8987 60.3773 31.2035 58.7252 31.2035ZM58.7663 13.9005C57.4721 13.9005 56.3292 14.2746 55.3378 15.0233C54.4077 15.7002 53.7924 16.7186 53.4925 18.0793C53.4855 18.1123 53.486 18.1464 53.4939 18.1792C53.5019 18.212 53.5171 18.2425 53.5385 18.2686C53.5598 18.2947 53.5868 18.3157 53.6174 18.3299C53.6479 18.3442 53.6813 18.3514 53.715 18.351H63.3954C63.5285 18.351 63.6345 18.2386 63.6212 18.1063C63.4966 16.8617 63.0072 15.8619 62.1537 15.1068C61.2449 14.3025 60.1161 13.9005 58.7663 13.9005Z" fill="#DDE1F4"/>
<path d="M71.3382 30.6118C71.2769 30.6118 71.2182 30.5874 71.1748 30.5441C71.1315 30.5008 71.1072 30.442 71.1072 30.3808V2.54261C71.1072 2.43336 71.1842 2.33861 71.291 2.31644L76.1165 1.31175C76.1501 1.30473 76.1849 1.30531 76.2183 1.31345C76.2517 1.32158 76.2829 1.33707 76.3096 1.35878C76.3362 1.38049 76.3577 1.40787 76.3724 1.43893C76.3871 1.47 76.3947 1.50395 76.3947 1.53833V30.3808C76.3947 30.442 76.3703 30.5008 76.327 30.5441C76.2837 30.5874 76.2249 30.6118 76.1637 30.6118H71.3382ZM10.6852 31.2008C8.75768 31.2008 7.03656 30.7291 5.52187 29.7865C4.00718 28.8435 2.80938 27.5542 1.92806 25.9181C1.04674 24.2821 0.606079 22.4243 0.606079 20.3444C0.606079 18.2648 1.04674 16.4208 1.92806 14.8125C2.80938 13.1761 4.00718 11.9009 5.52187 10.9857C7.03656 10.0427 8.75768 9.5714 10.6852 9.5714C12.2277 9.5714 13.5771 9.86248 14.7334 10.4451C15.6607 10.9115 16.4464 11.5296 17.0903 12.2996C17.2362 12.4742 17.5426 12.3754 17.5426 12.1476V2.04188C17.5426 1.93262 17.6192 1.83828 17.7265 1.81611L22.552 0.811019C22.5856 0.804014 22.6203 0.804577 22.6536 0.812668C22.687 0.820759 22.7181 0.836174 22.7447 0.857794C22.7714 0.879413 22.7928 0.906695 22.8076 0.937657C22.8224 0.968619 22.8301 1.00248 22.8302 1.03679V30.4699C22.8302 30.5311 22.8058 30.5899 22.7625 30.6332C22.7192 30.6765 22.6604 30.7009 22.5991 30.7009H18.3111C18.2575 30.7008 18.2057 30.6822 18.1643 30.6482C18.123 30.6141 18.0948 30.5668 18.0845 30.5142L17.645 28.2706C17.6059 28.0718 17.3455 28.013 17.2165 28.1686C16.6009 28.9116 15.8284 29.5756 14.8987 30.1602C13.8247 30.8537 12.4204 31.2004 10.6856 31.2004L10.6852 31.2008ZM11.8008 26.5418C13.5082 26.5418 14.8987 25.9734 15.9727 24.8364C17.0742 23.6721 17.6253 22.1884 17.6253 20.3859C17.6253 18.5833 17.0742 17.1138 15.9727 15.9769C14.8987 14.8125 13.5082 14.23 11.8008 14.23C10.1208 14.23 8.73026 14.7984 7.62841 15.9354C6.52656 17.0723 5.97624 18.5418 5.97624 20.3444C5.97624 22.1469 6.52696 23.6302 7.62841 24.7953C8.73026 25.9593 10.1208 26.5418 11.8008 26.5418ZM35.723 31.2036C33.6576 31.2036 31.8264 30.7601 30.229 29.8728C28.6317 28.9854 27.3787 27.7376 26.4699 26.1294C25.5612 24.5208 25.1068 22.663 25.1068 20.5556C25.1068 18.4205 25.5475 16.5208 26.4288 14.8573C27.3375 13.1934 28.5769 11.9037 30.1464 10.9889C31.7437 10.0459 33.6164 9.57462 35.7645 9.57462C37.7751 9.57462 39.551 10.0181 41.0931 10.9055C42.6356 11.7928 43.8334 13.0132 44.6869 14.5662C45.5683 16.091 46.0089 17.7964 46.0089 19.6824C46.0089 19.9872 45.9952 20.3061 45.9678 20.6387C45.9678 20.9052 45.9589 21.1805 45.9412 21.4652C45.9374 21.5232 45.9116 21.5777 45.869 21.6174C45.8265 21.6571 45.7704 21.6791 45.7122 21.6788H30.6004C30.5688 21.6786 30.5375 21.685 30.5086 21.6976C30.4796 21.7101 30.4536 21.7287 30.4323 21.7519C30.4109 21.7752 30.3947 21.8026 30.3846 21.8325C30.3745 21.8625 30.3708 21.8942 30.3738 21.9256C30.5213 23.4165 31.0652 24.5957 32.0054 25.4638C33.0242 26.3789 34.2498 26.8365 35.6823 26.8365C36.7559 26.8365 37.6509 26.6007 38.3669 26.1294C39.0676 25.6589 39.5966 25.0658 39.9554 24.349C39.9957 24.2684 40.0772 24.216 40.1671 24.216H45.08C45.1158 24.2156 45.1511 24.2238 45.1831 24.2398C45.2151 24.2558 45.2428 24.2792 45.264 24.308C45.2852 24.3368 45.2992 24.3703 45.3049 24.4056C45.3107 24.4409 45.3079 24.477 45.2969 24.5111C44.9039 25.6996 44.2874 26.7938 43.448 27.7928C42.5667 28.8467 41.4649 29.6785 40.1433 30.2884C38.8491 30.8988 37.3755 31.2036 35.723 31.2036ZM35.7645 13.9006C34.4703 13.9006 33.3274 14.2747 32.336 15.0234C31.4055 15.6999 30.7902 16.7187 30.4907 18.0794C30.4837 18.1124 30.4842 18.1465 30.4921 18.1793C30.5001 18.2121 30.5153 18.2426 30.5367 18.2687C30.5581 18.2948 30.585 18.3158 30.6156 18.33C30.6461 18.3443 30.6795 18.3515 30.7132 18.3511H40.3932C40.5263 18.3511 40.6327 18.2386 40.619 18.1064C40.494 16.8618 40.0054 15.862 39.1515 15.1069C38.2428 14.3025 37.1139 13.9006 35.7645 13.9006ZM58.7252 31.204C56.6597 31.204 54.8286 30.7605 53.2312 29.8732C51.6339 28.9858 50.3809 27.738 49.4721 26.1298C48.5634 24.5216 48.109 22.6634 48.109 20.556C48.109 18.4209 48.5497 16.5212 49.4306 14.8577C50.3397 13.1938 51.5787 11.9041 53.1486 10.9893C54.7459 10.0463 56.6182 9.57502 58.7663 9.57502C60.7769 9.57502 62.5532 10.0185 64.0953 10.9059C65.6374 11.7932 66.8352 13.0136 67.6891 14.5666C68.5705 16.0914 69.0111 17.7968 69.0111 19.6828C69.0111 19.9876 68.9974 20.3065 68.9696 20.6391C68.9696 20.9056 68.9607 21.1813 68.9434 21.4656C68.9395 21.5236 68.9137 21.578 68.8711 21.6177C68.8286 21.6574 68.7726 21.6794 68.7144 21.6793H53.6025C53.571 21.679 53.5397 21.6854 53.5107 21.698C53.4817 21.7105 53.4557 21.729 53.4343 21.7523C53.413 21.7755 53.3967 21.803 53.3866 21.8329C53.3764 21.8628 53.3727 21.8945 53.3756 21.926C53.5231 23.4169 54.0674 24.5962 55.0076 25.4642C56.0264 26.3794 57.252 26.8369 58.6836 26.8369C59.7577 26.8369 60.6527 26.6011 61.3691 26.1298C62.0694 25.6593 62.5988 25.0662 62.9572 24.3494C62.9975 24.2688 63.0789 24.2164 63.1692 24.2164H68.0818C68.2366 24.2164 68.3475 24.3647 68.2987 24.5115C67.906 25.7 67.2896 26.7942 66.4498 27.7933C65.5685 28.8471 64.467 29.6793 63.1451 30.2888C61.8509 30.8992 60.3773 31.204 58.7252 31.204ZM58.7663 13.901C57.4721 13.901 56.3292 14.2751 55.3378 15.0238C54.4077 15.7007 53.7924 16.7191 53.4925 18.0798C53.4855 18.1128 53.486 18.1469 53.4939 18.1797C53.5019 18.2125 53.5171 18.243 53.5385 18.2691C53.5598 18.2952 53.5868 18.3162 53.6174 18.3304C53.6479 18.3447 53.6813 18.3519 53.715 18.3515H63.3954C63.5285 18.3515 63.6345 18.239 63.6212 18.1068C63.4966 16.8622 63.0072 15.8624 62.1537 15.1073C61.2449 14.3029 60.1161 13.901 58.7663 13.901Z" fill="#DDE1F4"/>
<path d="M83.3228 30.6176C85.2891 30.6176 86.8828 29.0126 86.8828 27.033C86.8828 25.0535 85.2891 23.4485 83.3228 23.4485C81.357 23.4485 79.7633 25.0531 79.7633 27.0326C79.7633 29.0122 81.357 30.6172 83.3228 30.6172V30.6176Z" fill="#2C71F0"/>
</g>
<defs>
<clipPath id="clip0_11640_4174">
<rect width="86.2773" height="30.6457" fill="white" transform="translate(0.606079 0.677246)"/>
</clipPath>
</defs>
</svg>
