<svg width="115" height="32" viewBox="0 0 115 32" fill="none" xmlns="http://www.w3.org/2000/svg">
<path d="M13.4786 1.44385L1.58325 13.5196L3.67739 15.6455L13.4805 5.6937L23.2837 15.6455L25.3778 13.5196L13.4786 1.44385ZM4.53945 16.5226L6.59926 18.6136L13.4805 11.628L20.3618 18.6136L22.4197 16.5245L13.4786 7.44591L4.53945 16.5226Z" fill="#DDE1F4"/>
<path d="M41.6399 10.2593V14.2807H32.3537V18.3524H40.9324V22.1608H32.3537V30.2539H27.9213V10.2593H41.6399Z" fill="#DDE1F4"/>
<path d="M46.7741 30.2542H42.6812V16.5134H46.7741V30.2542ZM46.6882 14.1454H42.7708V10.3796H46.6882V14.1454Z" fill="#DDE1F4"/>
<path d="M52.1536 30.2539H48.0607V10.2593H52.1536V30.2539Z" fill="#DDE1F4"/>
<path d="M66.8429 23.7835V24.6083H56.8223C56.9616 25.5493 57.303 26.2696 57.8465 26.7652C58.3882 27.2628 59.0786 27.5106 59.9197 27.5106C61.249 27.5106 62.1588 26.9956 62.6489 25.9656H66.5301C66.162 27.3867 65.3839 28.5097 64.1957 29.3345C63.0056 30.1593 61.5809 30.5736 59.9197 30.5736C57.8217 30.5736 56.1243 29.9173 54.8312 28.6026C53.5362 27.2899 52.8896 25.5493 52.8896 23.3828C52.8896 21.1988 53.5286 19.4601 54.8045 18.1629C56.0633 16.8502 57.7512 16.1919 59.8682 16.1919C61.9661 16.1919 63.6636 16.8754 64.9567 18.2423C66.2135 19.6286 66.8429 21.4756 66.8429 23.7835ZM59.8129 19.2568C58.1345 19.2568 57.1447 20.1629 56.8491 21.9732H62.8301C62.6909 21.1213 62.3571 20.4553 61.8326 19.9751C61.3081 19.4969 60.6349 19.2568 59.8129 19.2568Z" fill="#DDE1F4"/>
<path d="M76.1818 16.5129H80.3796L75.5524 30.2538H70.6737L65.8466 16.5129H70.2542C70.2542 16.5129 73.1665 26.033 73.218 26.2285C73.2695 26.033 76.1818 16.5129 76.1818 16.5129Z" fill="#DDE1F4"/>
<path d="M94.5194 16.1936C95.9536 16.1936 97.0941 16.6331 97.9428 17.5121C98.7916 18.3911 99.215 19.638 99.215 21.2528V30.2539H95.1221V22.0795C95.1221 20.517 94.3954 19.7368 92.944 19.7368C92.2097 19.7368 91.5975 19.9846 91.1073 20.4822C90.6172 20.9798 90.3731 21.6806 90.3731 22.5868V30.2559H86.2802V16.5131H90.2682V18.457C91.319 16.9487 92.7342 16.1936 94.5194 16.1936Z" fill="#DDE1F4"/>
<path d="M113.875 23.7835V24.6083H103.855C103.994 25.5493 104.335 26.2696 104.879 26.7652C105.421 27.2628 106.111 27.5106 106.952 27.5106C108.281 27.5106 109.191 26.9956 109.681 25.9656H113.563C113.195 27.3867 112.416 28.5097 111.228 29.3345C110.038 30.1593 108.613 30.5736 106.952 30.5736C104.854 30.5736 103.157 29.9173 101.864 28.6026C100.569 27.2899 99.9221 25.5493 99.9221 23.3828C99.9221 21.1988 100.561 19.4601 101.837 18.1629C103.096 16.8502 104.784 16.1919 106.901 16.1919C108.999 16.1919 110.696 16.8754 111.989 18.2423C113.246 19.6286 113.875 21.4756 113.875 23.7835ZM106.845 19.2568C105.167 19.2568 104.177 20.1629 103.882 21.9732H109.863C109.723 21.1213 109.39 20.4553 108.865 19.9751C108.341 19.4969 107.667 19.2568 106.845 19.2568Z" fill="#DDE1F4"/>
<path d="M84.9957 30.2537H80.9028V16.5129H84.9957V30.2537ZM84.908 14.145H80.9906V10.3792H84.908V14.145Z" fill="#DDE1F4"/>
</svg>
