<svg width="160" height="30" viewBox="0 0 160 30" fill="none" xmlns="http://www.w3.org/2000/svg">
<g clip-path="url(#clip0_11640_4179)">
<path d="M23.0599 0.5H7.70695C3.93842 0.5 0.883423 3.555 0.883423 7.32353V22.6765C0.883423 26.445 3.93842 29.5 7.70695 29.5H23.0599C26.8284 29.5 29.8834 26.445 29.8834 22.6765V7.32353C29.8834 3.555 26.8284 0.5 23.0599 0.5Z" fill="#306BFF"/>
<path d="M20.0746 23.1029C20.3767 23.1029 20.9275 22.5948 20.9275 22.25V11.1618H17.5158C16.8361 11.1618 16.6628 10.9985 16.6628 10.3088V6.89704H10.6922C10.3524 6.89704 9.83931 7.44346 9.83931 7.74999V22.25C9.83931 22.5948 10.3524 23.1029 10.6922 23.1029H20.0746ZM8.13342 7.74999C8.13342 6.40893 9.33287 5.19116 10.6922 5.19116H16.6628C17.3048 5.19116 17.9156 5.58432 18.3687 6.0441L21.7805 9.45587C22.2336 9.91569 22.6334 10.5104 22.6334 11.1618V22.25C22.6334 23.6294 21.3962 24.8088 20.0746 24.8088H10.6922C9.33287 24.8088 8.13342 23.6294 8.13342 22.25V7.74999Z" fill="#090D1D"/>
<path d="M14.1043 13.7208L14.9573 12.8678C14.8945 12.8678 14.9729 12.8229 14.9573 12.8678C14.9416 12.8229 15.0043 12.8678 14.9573 12.8678V13.7208H15.8102C15.8102 13.6758 15.8572 13.7358 15.8102 13.7208C15.8102 13.7807 15.8572 13.7058 15.8102 13.7208L14.9573 14.5737C14.9416 14.6187 15.0043 14.5737 14.9573 14.5737C14.8945 14.5737 14.9729 14.6187 14.9573 14.5737H14.1043V13.7208C14.1043 13.7807 14.0573 13.7058 14.1043 13.7208C14.1043 13.6758 14.0573 13.7358 14.1043 13.7208ZM11.5455 18.8384L17.5161 12.8678C17.814 12.5831 18.0711 12.5831 18.369 12.8678L19.222 13.7208C19.5198 14.0055 19.5198 14.289 19.222 14.5737L13.2514 20.5443C12.9535 20.829 11.8434 20.829 11.5455 20.5443V19.6914C11.2476 19.4066 11.2476 19.1231 11.5455 18.8384ZM18.369 13.7208H17.5161L16.6632 15.4267L18.369 13.7208ZM10.6926 14.5737H11.5455L12.3985 13.7208C12.3201 13.7208 12.4141 13.6459 12.3985 13.7208C12.3828 13.6459 12.4611 13.7208 12.3985 13.7208V14.5737H13.2514C13.3298 14.5887 14.1043 14.5138 14.1043 14.5737C14.1043 14.6486 13.3298 14.5587 13.2514 14.5737L12.3985 15.4267V16.2796C12.3828 16.3396 12.4611 16.2796 12.3985 16.2796C12.3201 16.2796 12.4141 16.3396 12.3985 16.2796L11.5455 15.4267L10.6926 14.5737C10.6926 14.6486 10.6298 14.5587 10.6926 14.5737C10.6926 14.5138 10.6298 14.5887 10.6926 14.5737ZM16.6632 18.8384L17.5161 17.9855V17.1325C17.4377 17.1325 17.5317 17.0576 17.5161 17.1325C17.5004 17.0576 17.5788 17.1325 17.5161 17.1325L18.369 17.9855L19.222 18.8384C19.222 18.7785 19.3004 18.8534 19.222 18.8384C19.222 18.9133 19.3004 18.8234 19.222 18.8384H18.369L17.5161 19.6914C17.5004 19.7513 17.5788 19.6914 17.5161 19.6914C17.4377 19.6914 17.5317 19.7513 17.5161 19.6914V18.8384H16.6632C16.6004 18.8234 15.8102 18.9133 15.8102 18.8384C15.8102 18.7785 16.6004 18.8534 16.6632 18.8384Z" fill="#090D1D"/>
<path d="M35.7018 25.2355V4.93546H44.9238C51.5648 4.93546 56.1178 8.93746 56.1178 15.0855C56.1178 21.2335 51.5648 25.2355 44.9238 25.2355H35.7018ZM40.3998 21.3785H44.6918C48.7228 21.3785 51.3618 18.9715 51.3618 15.0855C51.3618 11.1995 48.7228 8.79246 44.6918 8.79246H40.3998V21.3785ZM65.6057 25.4675C60.6467 25.4675 57.0217 22.1325 57.0217 17.4345C57.0217 12.7365 60.6467 9.40146 65.6057 9.40146C70.5647 9.40146 74.1607 12.7365 74.1607 17.4345C74.1607 22.1325 70.5647 25.4675 65.6057 25.4675ZM65.6057 21.7555C67.8677 21.7555 69.5787 20.1315 69.5787 17.4345C69.5787 14.7375 67.8677 13.1135 65.6057 13.1135C63.3437 13.1135 61.6037 14.7375 61.6037 17.4345C61.6037 20.1315 63.3437 21.7555 65.6057 21.7555ZM83.5647 25.4675C78.4897 25.4675 74.8647 22.1325 74.8647 17.4345C74.8647 12.7365 78.4897 9.40146 83.5647 9.40146C86.8416 9.40146 89.4226 10.8225 90.5536 13.3745L87.0446 15.2595C86.2036 13.7805 84.9567 13.1135 83.5357 13.1135C81.2447 13.1135 79.4467 14.7085 79.4467 17.4345C79.4467 20.1605 81.2447 21.7555 83.5357 21.7555C84.9567 21.7555 86.2036 21.1175 87.0446 19.6095L90.5536 21.5235C89.4226 24.0175 86.8416 25.4675 83.5647 25.4675ZM92.9555 25.2355V4.93546H101.51C108.035 4.93546 112.472 9.05346 112.472 15.0855C112.472 21.1175 108.035 25.2355 101.51 25.2355H92.9555ZM95.8555 22.7125H101.336C106.353 22.7125 109.572 19.6385 109.572 15.0855C109.572 10.5325 106.353 7.45846 101.336 7.45846H95.8555V22.7125ZM118.017 12.4465C119.003 10.6485 120.917 9.72046 123.614 9.72046V12.4175C123.382 12.3885 123.179 12.3885 122.976 12.3885C119.989 12.3885 118.133 14.2155 118.133 17.5795V25.2355H115.349V9.86546H118.017V12.4465ZM131.454 9.72046C135.659 9.72046 138.037 11.7505 138.037 15.9555V25.2355H135.398V23.2055C134.47 24.5975 132.759 25.4095 130.352 25.4095C126.872 25.4095 124.668 23.5535 124.668 20.8855C124.668 18.4205 126.263 16.3905 130.845 16.3905H135.253V15.8395C135.253 13.4905 133.89 12.1275 131.135 12.1275C129.308 12.1275 127.452 12.7655 126.263 13.7805L125.103 11.6925C126.698 10.4165 128.989 9.72046 131.454 9.72046ZM130.816 23.2635C132.904 23.2635 134.557 22.3065 135.253 20.5375V18.3915H130.961C128.206 18.3915 127.423 19.4645 127.423 20.7695C127.423 22.3065 128.699 23.2635 130.816 23.2635ZM147.655 5.83446C146.002 5.83446 145.161 6.76246 145.161 8.53146V9.86546H149.627V12.1565H145.219V25.2355H142.435V12.1565H139.825V9.86546H142.435V8.50246C142.435 5.51546 144.233 3.54346 147.51 3.54346C148.699 3.54346 149.859 3.83346 150.642 4.44246L149.801 6.55946C149.221 6.12446 148.467 5.83446 147.655 5.83446ZM158.864 22.3355L159.734 24.3365C158.893 25.0615 157.617 25.4095 156.37 25.4095C153.267 25.4095 151.498 23.6985 151.498 20.5955V12.1565H148.888V9.86546H151.498V6.50146H154.282V9.86546H158.69V12.1565H154.282V20.4795C154.282 22.1325 155.152 23.0605 156.689 23.0605C157.501 23.0605 158.284 22.7995 158.864 22.3355Z" fill="#306BFF"/>
</g>
<defs>
<clipPath id="clip0_11640_4179">
<rect width="158.647" height="29" fill="white" transform="translate(0.883423 0.5)"/>
</clipPath>
</defs>
</svg>
