<svg xmlns="http://www.w3.org/2000/svg" width="100%" height="100%" viewBox="0 0 415 394" fill="none">
<path class="problem-line" d="M254.991 0.987623C280 17.5 266.926 64.6153 255.921 78.1736C248.495 87.3218 244.001 93.6573 232.61 99.0731C224.013 103.161 213.287 103.298 204.187 105.693C195.888 107.878 188.108 110.964 180.021 113.711C167.592 117.931 156.268 124.872 144.847 131.152C134.456 136.867 121.794 142.174 114.65 152.116C106.098 164.015 97.0997 173.759 89.8735 186.591C80.2163 203.741 78.1286 218.985 75.4405 238.498C68.8395 286.415 100.264 329.08 147.929 337.126C174.093 341.543 201.165 341.303 227.595 342.529C238.352 343.028 248.369 343.874 258.955 342.493C269.847 341.072 279.962 341.28 289.443 334.84C302.395 326.041 306.444 304.543 308.603 290.474C311.992 268.383 316.413 245.1 306.018 224.066C296.549 204.909 279.761 191.91 263.994 178.16C243.371 160.174 216.801 153.146 191.062 146.636C171.789 141.762 147.921 137.638 128.636 143.102C102.73 150.442 79.0388 164.399 58.6608 181.886C32.399 204.423 9.51174 228.086 4.60698 263.69C1.13656 288.882 -3.71603 312.853 7.36595 336.909C18.3522 360.757 41.6848 369.233 65.7752 374.739C101.557 382.919 140.186 385.395 176.689 383.13C205.314 381.354 241.031 385.612 266.751 369.603C289.409 355.5 292.362 329.068 295.773 304.307C299.828 274.873 298.211 236.238 276.503 212.909C258.632 193.703 232.832 186.26 207.935 181.277C189.022 177.492 163.307 168.097 144.119 174.614C126.333 180.654 107.761 189.35 97.2489 205.741C74.7575 240.812 106.217 278.03 134.14 298.453C155.022 313.726 180.419 312.894 204.102 307.483C231.082 301.318 261.874 290.706 284.376 273.967C296.767 264.749 301.768 254.815 305.1 239.541C311.566 209.893 314.4 181.046 311.874 150.717C308.661 112.136 298.346 78.6989 267.467 53.8299C235.285 27.9108 182.969 38.3469 147.753 48.3806C110.264 59.062 79.7137 70.8557 53.5507 100.036C35.3122 120.379 16.5858 148.646 21.3862 177.866C25.1889 201.013 49.2231 218.43 66.7331 231.22C96.7235 253.126 131.298 270.03 165.685 283.854C227.073 308.534 293.08 317.106 358.116 326.066C370.802 327.813 387.774 332.565 400.166 326.996C414.415 320.591 414.069 299.212 413.516 285.881C411.497 237.187 376.173 183.376 332.647 162.19C314.526 153.37 292.565 152.92 272.902 150.211C252.718 147.431 236.801 147.111 217.369 153.907C183.986 165.583 170.933 204.292 160.081 234.962C149.088 266.031 137.905 313.121 159.09 342.007C191.786 386.589 251.507 384.972 301.8 391.248C322.762 393.863 346.98 392.402 367.505 387.129C393.863 380.359 401.304 369.935 402.958 341.968C405.157 304.774 395.96 269.631 379.341 236.599C363.81 205.726 340.648 185.574 311.784 167.522C273.201 143.391 225.049 127.297 179.408 124.77C142.945 122.751 102.65 155.214 78.7017 179.582C51.0087 207.759 25.0256 235.127 21.1182 275.994C19.427 293.684 37.9975 311.541 49.738 322.283C69.0885 339.986 94.7018 353.874 119.843 361.116C146.228 368.716 174.173 376.184 201.854 376.669C232.17 377.2 263.927 360.178 291.684 350.142C318.896 340.304 346.468 330.791 372.561 318.127C386.151 311.532 402.982 302.964 406.962 287.207C413.574 261.024 402.756 234.02 393.554 209.786C382.763 181.365 366.655 151.469 342.184 132.606C300.207 100.246 245.524 95.3829 194.377 90.2605C163.796 87.1978 142.578 103.261 120.514 122.026C92.6001 145.767 63.835 175.984 52.8098 211.877C47.0984 230.471 47.5863 244.443 58.161 261.14C75.0498 287.806 98.6674 307.625 125.362 323.988C143.37 335.026 162.032 349.353 182.872 354.4C195.672 357.501 209.405 360.628 222.528 361.687C238.701 362.992 256.081 354.829 271.079 349.938C304.812 338.935 335.897 321.876 364.942 301.477C379.577 291.199 388.218 279.279 392.244 261.879C400.3 227.068 377.983 194.187 349.942 175.412C324.476 158.361 289.535 157.973 260.151 153.925C248.628 152.338 221.406 143.695 219.005 161.123C215.167 188.98 215.993 213.01 223.578 240.265C227.844 255.593 230.438 263.315 246.458 268.743C272.702 277.635 303.945 283.285 331.724 280.489C347.124 278.939 361.803 278.162 376.8 274.137C384.292 272.126 383.915 259.199 384.749 253.147" stroke="#383E80" stroke-wditht="1" stroke-linecap="round"></path>
</svg>