<svg width="603" height="299" viewBox="0 0 603 299" fill="none" xmlns="http://www.w3.org/2000/svg">
<g opacity="0.7" clip-path="url(#clip0_16812_64260)">
<path d="M55.7539 -102.281V560.699" stroke="#6D76FF"/>
<path d="M1.04688 -102.281V560.699" stroke="#6D76FF"/>
<path d="M110.461 -102.281V560.699" stroke="#6D76FF"/>
<path d="M165.168 -102.281V560.699" stroke="#6D76FF"/>
<path d="M219.875 -102.281V560.699" stroke="#6D76FF"/>
<path d="M274.582 -102.281V560.699" stroke="#6D76FF"/>
<path d="M329.289 -102.281V560.699" stroke="#6D76FF"/>
<path d="M383.996 -102.281V560.699" stroke="#6D76FF"/>
<path d="M438.703 -102.281V560.699" stroke="#6D76FF"/>
<path d="M493.41 -102.281V560.699" stroke="#6D76FF"/>
<path d="M548.117 -102.281V560.699" stroke="#6D76FF"/>
<path d="M602.824 -102.281V560.699" stroke="#6D76FF"/>
<path d="M1314.02 0.294922L1.04776 0.294864" stroke="#6D76FF"/>
<path d="M1311.97 20L-0.999146 19.9999" stroke="#6D76FF"/>
<path d="M1311.97 40L-0.999117 39.9999" stroke="#6D76FF"/>
<path d="M1313.97 80L1.00088 79.9999" stroke="#6D76FF"/>
<path d="M1313.97 60L1.00088 59.9999" stroke="#6D76FF"/>
<path d="M1314.97 100L2.00085 99.9999" stroke="#6D76FF"/>
<path d="M1313.97 180L1.00088 180" stroke="#6D76FF"/>
<path d="M1312.97 120L0.000854492 120" stroke="#6D76FF"/>
<path d="M1315 200L2.0321 200" stroke="#6D76FF"/>
<path d="M1308.97 220L-3.99915 220" stroke="#6D76FF"/>
<path d="M1313.97 240L1.00085 240" stroke="#6D76FF"/>
<path d="M1308.97 260L-3.99915 260" stroke="#6D76FF"/>
<path d="M1311.97 280L-0.999146 280" stroke="#6D76FF"/>
<path d="M1314.97 140L2.00085 140" stroke="#6D76FF"/>
<path d="M1314.97 159L2.00085 159" stroke="#6D76FF"/>
</g>
<defs>
<clipPath id="clip0_16812_64260">
<rect width="603" height="299" fill="white"/>
</clipPath>
</defs>
</svg>
